<?xml version="1.0" standalone="no"?> <!DOCTYPE svg PUBLIC "-//W3C//DTD SVG 1.0//EN" "http://www.w3.org/TR/2001/REC-SVG-20010904/DTD/svg10.dtd" > <svg xmlns="http://www.w3.org/2000/svg" width="100%" height="100%">
<defs >
<font id="fp-9848" horiz-adv-x="927" ><font-face
    font-family="Faraco Hand"
    units-per-em="2048"
    panose-1="3 0 0 0 0 0 0 0 0 0"
    ascent="1410"
    descent="-816"
    alphabetic="0" />
<missing-glyph horiz-adv-x="1128" d="M60 0V1372H1048V0H60ZM140 80H968V1292H140V80Z" />
<glyph unicode=" " glyph-name="space" horiz-adv-x="541" />
<glyph unicode="!" glyph-name="exclam" horiz-adv-x="473" d="M320 1520Q394 1502 394 1446Q301 977 264 482Q282 450 282 408Q259 315 227 315H208Q194 315 153 371Q190 1005 264 1483Q264 1520 320 1520ZM153 93H190Q301 35 301 0Q301 -116 97 -130L60 -74Q97
93 153 93Z" />
<glyph unicode="&quot;" glyph-name="quotedbl" horiz-adv-x="455" d="M320 1465H357L375 1335Q338 1038 301 1038H264V1354Q276 1465 320 1465ZM116 1428H134Q171 1428 190 1205Q171 1166 153 1038H116Q73 1038 60 1298Q79 1428 116 1428Z" />
<glyph unicode="#" glyph-name="numbersign" horiz-adv-x="1179" d="M598 1168Q658 1150 672 1094Q672 1085 616 890V853Q839 864 839 1076L876 1094H931V1076Q931 1036 876 890Q1098 853 1098 816V779H950Q802 779 802 594V519Q868 519 968 538Q1061 514 1061
482V464Q727 464 727 241Q690 165 690 130H653Q616 130 616 167Q653 314 653 390H635Q412 350 412 297Q371 112 338 112H282Q282 131 264 167Q301 262 301 315H97Q60 315 60 353Q60 394 375 464Q412 613 412 705Q220 692 134 612Q98 631 79 631V686Q79 733 486
853Q486 885 523 964Q418 1010 412 1094Q532 1168 598 1168ZM486 482V464Q690 464 690 556Q709 601 727 742H653Q486 742 486 482Z" />
<glyph unicode="$" glyph-name="dollar" horiz-adv-x="1104" d="M523 1224Q635 1180 635 1150V1094Q561 1094 542 946Q579 940 579 909Q615 927 635 927Q857 909 857 835V760Q857 723 820 723Q746 760 746 779Q598 760 598 723V649Q598 501 709 501Q1024 422 1024
278Q1024 55 690 -55Q690 -85 616 -333H523V-315Q523 -293 561 -111V-55H394Q60 23 60 130Q88 204 116 204H153Q292 56 431 56H561V74Q529 464 449 464Q153 464 153 668Q153 756 431 872Q449 904 449 946Q449 965 431 1001Q478 1224 523 1224ZM282 631Q282 579
468 556H486Q468 705 431 705Q282 682 282 631ZM635 408V390Q653 180 690 74Q931 141 931 297Q802 408 635 408Z" />
<glyph unicode="%" glyph-name="percent" horiz-adv-x="1030" d="M190 1242H282Q338 1224 338 1131Q338 1030 264 983Q143 1020 97 1020V1038Q97 1090 171 1187Q190 1223 190 1242ZM876 1224Q921 1187 950 1187V1150Q276 198 153 -18H97Q60 -18 60 19Q60 126 876
1224ZM857 353Q950 327 950 223Q891 112 746 112Q679 146 653 223Q653 310 857 353Z" />
<glyph unicode="&amp;" glyph-name="ampersand" horiz-adv-x="1364" d="M727 1446Q802 1428 802 1354Q579 1000 579 927Q579 839 764 501H783Q1165 804 1191 964H1209Q1284 934 1284 835Q894 420 894 353H913L1154 167Q1154 130 1098 130Q998 130 783 297Q428
-55 301 -55H245Q60 -30 60 112V149Q60 242 394 835Q431 909 431 964Q394 1103 394 1113Q457 1446 727 1446ZM505 1131V1094H542Q542 1120 672 1317H616Q505 1241 505 1131ZM468 760L171 204V149L190 56H245Q406 56 690 390Q505 691 505 760H468Z" />
<glyph unicode="&apos;" glyph-name="quotesingle" horiz-adv-x="270" d="M60 1539H134L190 1354Q159 1057 116 1057H79L60 1187V1335L79 1446Q60 1477 60 1539Z" />
<glyph unicode="(" glyph-name="parenleft" horiz-adv-x="789" d="M635 1780H672Q709 1774 709 1743L542 1632Q226 1210 208 909Q175 909 171 723V464Q171 417 208 297H190Q245 74 431 -296V-333H394Q60 22 60 631Q60 1198 523 1761L635 1780Z" />
<glyph unicode=")" glyph-name="parenright" horiz-adv-x="714" d="M116 1873Q213 1854 301 1854Q301 1799 227 1799Q635 1360 635 964V779Q635 345 282 -241L134 -352H79V-333L338 56Q542 526 542 816Q542 1411 60 1780V1817Q60 1844 116 1873Z" />
<glyph unicode="*" glyph-name="asterisk" horiz-adv-x="789" d="M153 1131H171L338 1001Q363 1131 394 1131H431Q440 1057 486 1057H523L598 1113H616Q653 1107 653 1076V1038Q561 963 561 946Q709 946 709 909Q709 883 579 797Q605 797 690 686V668Q690 631
653 631Q477 742 449 742V631Q449 594 412 594Q386 594 338 686Q320 686 208 594H190Q153 594 153 631L264 779Q60 807 60 853Q60 894 227 909V946L116 1094Q121 1131 153 1131Z" />
<glyph unicode="+" glyph-name="plus" horiz-adv-x="844" d="M486 872H542Q542 843 579 797Q542 658 542 631Q578 612 598 612L764 631V519H690Q523 486 523 445V278Q523 241 486 241H431Q431 278 412 278L431 408V482Q246 464 153 464L60 556V575H153Q246 575
431 594Q431 675 486 872Z" />
<glyph unicode="," glyph-name="comma" horiz-adv-x="306" d="M153 -37H171Q198 -37 227 -92V-185Q190 -574 116 -574H97Q60 -574 60 -537V-519Q123 -201 134 -167L116 -130V-74Q121 -37 153 -37Z" />
<glyph unicode="-" glyph-name="hyphen" horiz-adv-x="696" d="M375 649H523L616 631V575Q616 538 579 538Q565 538 468 556L431 538Q395 556 375 556Q138 519 97 519L60 575V612Q208 649 375 649Z" />
<glyph unicode="." glyph-name="period" horiz-adv-x="344" d="M245 0L264 -37Q264 -138 171 -185Q60 -167 60 -130V-74Q60 -23 245 0Z" />
<glyph unicode="/" glyph-name="slash" horiz-adv-x="597" d="M658 1633H732Q788 1633 788 1559Q788 1514 602 1207Q195 189 46 -258Q46 -332 9 -332H-47Q-84 -332 -84 -295Q-55 -122 491 1225Q658 1534 658 1577V1633Z" />
<glyph unicode="0" glyph-name="zero" horiz-adv-x="808" d="M653 1224H690Q727 1218 727 1187L672 1094V1038Q727 856 727 779Q727 381 375 167Q171 167 171 37H116V223Q60 294 60 390V408Q60 544 227 927Q227 981 561 1094Q635 1224 653 1224ZM561 890Q264 373
264 241H282Q446 241 598 649V853Q598 890 561 890ZM153 408L190 390L394 835Q283 835 153 408Z" />
<glyph unicode="1" glyph-name="one" horiz-adv-x="548" d="M394 1150H431Q468 1144 468 1113Q431 756 431 612V167Q431 130 394 130H375Q338 130 338 167V723H301Q163 378 116 371H97Q60 371 60 408Q60 454 357 1057Q357 1150 394 1150Z" />
<glyph unicode="2" glyph-name="two" horiz-adv-x="844" d="M394 1038Q478 1003 486 964V872Q171 240 171 204Q658 315 746 315L764 278Q764 207 282 112H245L60 130V223Q334 686 394 927H357L282 835Q247 853 227 853V964Q227 1012 394 1038Z" />
<glyph unicode="3" glyph-name="three" horiz-adv-x="863" d="M579 1020H709Q736 1020 764 964V946Q764 866 598 723Q783 605 783 482Q783 281 301 112Q218 112 190 93Q106 124 60 204V241Q66 278 97 278H153Q249 186 282 186Q672 349 672 482V519Q672 548 598
594H505L394 575Q361 594 320 594V686Q401 692 653 909Q653 946 616 946Q394 909 338 853H264Q227 853 227 890V927Q444 1020 579 1020Z" />
<glyph unicode="4" glyph-name="four" horiz-adv-x="789" d="M561 1038Q596 1020 616 1020V927Q523 853 523 686Q568 668 709 649V594Q709 560 542 538Q463 37 431 37Q375 48 375 167Q375 223 431 482Q431 519 394 519Q394 464 134 464Q60 482 60 556Q431 864
431 1001L561 1038ZM264 594L412 631V742Q389 742 264 594Z" />
<glyph unicode="5" glyph-name="five" horiz-adv-x="845" d="M746 1057L764 1020V964Q382 964 208 668Q635 612 635 464V445Q635 300 227 186L208 223V278Q208 309 486 390L523 445V464Q523 527 134 575Q79 647 79 686Q116 747 116 797Q80 816 60 816V890Q60 944
449 1020Q603 1057 746 1057Z" />
<glyph unicode="6" glyph-name="six" horiz-adv-x="733" d="M431 1038H486Q523 1033 523 1001Q523 909 431 909Q200 678 171 501V371H208Q344 631 505 631Q653 631 653 445Q653 245 264 149Q60 229 60 408V464Q60 708 357 983L431 1038ZM245 297Q251 260 282 260Q408
260 542 427Q542 464 486 464Q245 370 245 297Z" />
<glyph unicode="7" glyph-name="seven" horiz-adv-x="697" d="M375 1020H412Q523 946 523 853Q505 821 505 779V760L616 686V668Q468 583 468 519V315L486 186L449 167H412Q369 167 357 464L375 575H338Q282 575 171 501Q60 538 60 575Q60 597 375 723L394 835V872Q394
909 357 909L134 816H79V872Q222 1020 375 1020Z" />
<glyph unicode="8" glyph-name="eight" horiz-adv-x="900" d="M542 1168H579Q746 1168 746 964V946Q746 857 616 723Q829 657 820 464Q646 93 338 93H282Q60 137 60 315Q101 612 294 653L301 668Q198 696 171 779V853Q327 1168 542 1168ZM320 890V797Q320 770
394 742Q635 813 635 964V1001L561 1020Q375 1020 320 890ZM153 353Q153 218 282 186Q579 186 727 445Q727 594 505 594Q227 574 153 353Z" />
<glyph unicode="9" glyph-name="nine" horiz-adv-x="996" d="M566 1076Q758 1076 822 734V623Q822 581 825 551Q822 516 822 475Q822 456 820 448Q822 420 822 401L826 204Q844 107 844 19L807 0H751Q685 0 697 247Q696 606 704 752Q490 526 251 519Q84 563 84
723Q342 1076 566 1076ZM221 664Q215 647 240 644Q613 728 585 909V927H548Q390 927 221 664Z" />
<glyph unicode=":" glyph-name="colon" horiz-adv-x="362" d="M208 835Q241 816 282 816V779Q282 679 208 649Q79 705 79 760Q97 835 208 835ZM134 390Q245 378 245 334Q245 167 134 167Q60 223 60 260Q85 390 134 390Z" />
<glyph unicode=";" glyph-name="semicolon" horiz-adv-x="399" d="M227 353Q320 334 320 260L245 186H171L153 260Q189 344 227 353ZM245 -55Q301 -55 301 -130Q202 -396 116 -463H79L60 -389Q184 -82 245 -55Z" />
<glyph unicode="&lt;" glyph-name="less" horiz-adv-x="807" d="M635 924H690Q727 918 727 887V813Q274 563 190 461V424Q665 162 709 71V53Q709 16 653 16Q60 325 60 479Q60 557 338 702Q338 722 635 924Z" />
<glyph unicode="=" glyph-name="equal" horiz-adv-x="1067" d="M839 890L876 835Q876 774 412 742H394L357 760Q327 738 171 723Q97 751 97 779V816L116 853L208 835L505 872L542 853Q622 890 839 890ZM894 556Q987 533 987 501V482Q987 445 931 445Q618 445 153
408Q68 444 60 482Q60 519 116 519Q134 519 134 501Q394 538 894 556Z" />
<glyph unicode="&gt;" glyph-name="greater" horiz-adv-x="770" d="M116 946L542 631Q690 554 690 445Q457 260 394 260Q394 240 134 0H97Q97 20 79 56Q228 307 505 445Q542 445 542 482Q233 671 60 890V909Q60 946 116 946Z" />
<glyph unicode="?" glyph-name="question" horiz-adv-x="939" d="M653 1502Q950 1502 950 1317Q950 1127 542 668Q509 603 505 530H412Q412 550 394 668Q857 1227 857 1317V1354Q789 1391 709 1391Q477 1391 236 1215Q236 1122 199 1122Q60 1094 60 1224Q234 1502
653 1502ZM394 223H431Q460 223 505 149Q486 37 449 37H431L394 56V19H357Q330 19 301 74V130Q301 149 394 223Z" />
<glyph unicode="@" glyph-name="at" horiz-adv-x="1512" d="M913 1242Q1244 1242 1376 964Q1432 784 1432 742Q1432 478 1117 241H1061Q978 241 894 353L746 241H672Q542 241 542 371V427Q663 779 931 779Q987 779 1080 631V575Q1080 507 1005 408Q1005 353 1080
353Q1321 527 1321 705V835Q1203 1113 894 1113Q416 1113 208 612Q171 540 171 408V390Q171 -49 579 -204Q652 -241 783 -241H894Q1111 -241 1432 -111V-130Q1192 -352 820 -352H764Q287 -352 97 149Q60 216 60 297V353Q60 1001 820 1242H913ZM635 371Q672 365
672 334Q876 417 876 556V594H857Q750 594 635 371Z" />
<glyph unicode="A" glyph-name="A" horiz-adv-x="955" d="M561 1483H579Q598 1483 635 1409L616 1317V1279Q686 482 783 482Q876 482 876 445V408L802 390Q802 408 783 408Q783 390 764 390Q820 78 820 -111Q788 -130 746 -130L709 -55L727 -18Q694 371 616 371Q227
323 227 223Q145 -111 97 -111Q60 -111 60 -74V56Q60 88 134 260Q116 296 116 315Q185 315 264 742Q408 1322 505 1409Q533 1483 561 1483ZM486 1187Q301 467 301 427H320Q566 464 635 501Q579 712 505 1187H486Z" />
<glyph unicode="B" glyph-name="B" horiz-adv-x="1159" d="M635 1409H672Q783 1398 783 1354V1242L616 1038Q1080 972 1080 668V649Q1080 510 839 315Q722 213 468 130V74H431Q394 136 116 149L60 223V260Q60 286 116 315H134L208 260H357Q394 260 394 297V390L375
501L394 538Q361 862 282 909V927Q282 956 357 1001Q320 1133 320 1205H282V1094H264Q172 1143 171 1168V1187Q372 1409 635 1409ZM412 1261L431 1168V1076H449Q677 1233 690 1279V1317H635Q579 1317 412 1261ZM449 872Q486 575 486 278V260Q618 260 894 519Q987
591 987 668V723Q839 946 616 946Q503 909 449 872Z" />
<glyph unicode="C" glyph-name="C" horiz-adv-x="1122" d="M783 1298Q894 1298 894 1187V1150Q894 1123 839 1094H820Q727 1205 690 1205Q364 1059 227 797Q171 675 171 631V551Q291 204 515 210T833 251L944 269L1043 241V186Q664 112 616 112Q60 174 60 575V612Q60
993 653 1298H783Z" />
<glyph unicode="D" glyph-name="D" horiz-adv-x="1178" d="M245 1279H320Q320 1211 764 1020Q1098 793 1098 631V594Q1098 452 820 186Q566 50 301 0V-37Q301 -174 245 -185H208V-37Q208 -14 79 37V56Q79 100 227 130L245 167V890L227 1113Q245 1113 245 1131L208
1150H60V1205Q60 1239 227 1261Q227 1279 245 1279ZM338 1094L357 464L338 334Q357 298 357 278Q338 246 338 204Q375 198 372 136Q727 278 876 445L1024 575Q1024 849 338 1094Z" />
<glyph unicode="E" glyph-name="E" horiz-adv-x="1104" d="M301 1298L320 1187Q684 1261 987 1298L1005 1261Q1005 1205 375 1076Q320 918 320 853V668Q772 797 894 797H968V723Q301 575 301 501Q282 429 282 353Q282 -18 486 -18H523Q931 67 931 241H987Q1024
235 1024 204Q1024 -23 505 -130H431Q190 -28 190 167V482L208 519Q60 519 60 575V594Q66 631 97 631H208L245 1020L208 1038L134 983Q108 983 79 1038V1094Q245 1094 245 1298H301Z" />
<glyph unicode="F" glyph-name="F" horiz-adv-x="996" d="M1117 1335H1302V1261Q431 1175 431 1076Q431 1057 449 1057L431 927V668Q437 631 468 631Q528 668 561 668Q579 668 579 649L672 668H764V594Q431 523 431 482V19Q431 -18 394 -18H375Q320 -18 320 149Q320
224 338 482Q320 482 320 501L227 482H190V556Q244 556 338 649L320 686V705Q320 793 338 890Q320 959 320 1057V1076H282Q214 1076 134 983Q105 983 60 1057V1094Q60 1150 282 1205L264 1298V1317H357Q357 1224 394 1224Q785 1335 1117 1335Z" />
<glyph unicode="G" glyph-name="G" horiz-adv-x="1011" d="M857 1298Q913 1226 913 1187L653 1113Q171 817 171 519V482Q171 296 431 260Q764 260 764 408Q764 573 783 686Q537 673 394 594H338V668Q338 747 839 816L894 742V371H931V297Q876 297 876 260V-18Q876
-55 839 -55H820Q764 -55 764 186V204Q524 149 449 149H394Q110 149 60 519Q60 853 561 1187Q670 1298 857 1298Z" />
<glyph unicode="H" glyph-name="H" horiz-adv-x="1049" d="M746 1372H764Q788 1372 857 1261V1187Q857 1168 839 1168L857 1131V1057Q857 964 876 779H968V742Q876 666 876 649V390Q876 130 802 130H764V334Q764 376 783 408Q764 441 764 482V649H746Q245 598
245 556V-92H171Q134 -92 134 -55V260Q134 570 60 1354H116Q196 1354 227 705H282Q597 742 635 742H727Q764 742 764 779Q764 848 709 1354L746 1372Z" />
<glyph unicode="I" glyph-name="I" horiz-adv-x="307" d="M116 1354H208V1261Q208 1199 227 1168Q176 848 153 19Q171 -53 171 -130L79 -148L60 -111Q79 935 116 1354Z" />
<glyph unicode="J" glyph-name="J" horiz-adv-x="882" d="M635 1317H653Q690 1317 690 1261V1205Q723 1205 802 315V130Q742 -204 616 -204Q246 -110 79 167Q79 187 60 223Q79 259 79 278L129 272Q216 99 579 -74H598Q782 16 598 1131Q579 1244 579 1279L635 1317Z" />
<glyph unicode="K" glyph-name="K" horiz-adv-x="900" d="M134 1446H153Q264 1446 264 1372Q208 832 208 742H227L616 1242Q683 1335 727 1335Q763 1317 783 1317V1298Q669 1203 528 991T301 668Q820 143 820 112V56H764Q254 556 227 556Q190 556 190 501Q190
344 171 -92L116 -130H97L60 -111L97 390Q97 408 97 538V575Q97 815 116 946L134 1446Z" />
<glyph unicode="L" glyph-name="L" horiz-adv-x="882" d="M116 1354H134Q185 1354 208 1168Q208 927 171 186L190 149Q321 186 338 186H523Q616 186 802 167V130Q783 74 690 74H431Q154 19 134 19Q60 37 60 130Q60 257 116 1057Q116 1073 116 1155T116 1279Q79
1279 79 1317Q84 1354 116 1354Z" />
<glyph unicode="M" glyph-name="M" horiz-adv-x="1141" d="M60 1317H190Q223 1317 264 1150Q346 1077 542 797H579Q631 954 913 1317H950Q977 1317 1005 1261V1076Q1005 1034 987 1001Q1005 965 1005 946Q1005 904 987 872Q1005 557 1061 93V37H987Q913 37 876
1020Q632 668 523 668Q454 692 301 964L264 983H245V56Q245 29 190 0H171Q125 0 116 74Q116 109 153 297L134 464Q134 482 153 482L134 612V1113Q134 1180 60 1279V1317Z" />
<glyph unicode="N" glyph-name="N" horiz-adv-x="1086" d="M894 1483Q937 1483 987 742Q1005 645 1005 556Q1005 473 987 315L1005 204Q978 130 950 130H894Q894 167 579 482Q320 859 227 927H190L208 890Q227 503 227 260Q227 37 171 37H116Q79 186 79 353V723L60
835Q79 1187 134 1187H190Q190 1126 320 1001Q614 610 820 390H839Q857 668 857 797V1446Q863 1483 894 1483Z" />
<glyph unicode="O" glyph-name="O" horiz-adv-x="1233" d="M672 1242Q746 1215 746 1187V1168L727 1131Q1135 1065 1135 723Q1154 723 1154 594V575Q1154 259 616 -92Q591 -92 412 -130Q109 -130 60 353Q60 721 542 1205L672 1242ZM171 278Q224 -18 412 -18H468Q729
-18 1043 482V686Q1043 912 690 1001L598 1020Q400 963 227 631Q171 447 171 278Z" />
<glyph unicode="P" glyph-name="P" horiz-adv-x="938" d="M542 1335Q1061 1242 1061 1094Q1061 835 357 538L394 130Q375 98 375 56Q394 20 394 0Q375 -36 375 -55H320Q282 -55 282 -18Q264 351 264 482H245L60 464V519L264 649V1168Q264 1205 227 1205H208L134
1150H116Q89 1150 60 1205V1224Q262 1335 542 1335ZM357 1224V1187Q362 1150 394 1150Q380 1038 357 1038L375 946V890Q375 824 357 723Q375 668 394 668Q611 704 913 1001Q950 1001 950 1094Q750 1224 486 1224Q445 1224 412 1205Q376 1224 357 1224Z" />
<glyph unicode="Q" glyph-name="Q" horiz-adv-x="1178" d="M505 1261Q561 1261 561 1187Q572 1187 802 1205Q1098 1147 1098 779Q1098 587 802 278Q802 216 857 149V112Q857 74 820 74Q780 78 709 186Q457 56 320 56Q116 56 60 371Q60 826 468 1242L505 1261ZM171
464V353Q197 167 338 167H375Q444 167 616 241V278Q445 482 394 482V538H431Q527 538 709 353Q987 613 987 797Q917 1057 746 1057H579Q288 1057 171 464Z" />
<glyph unicode="R" glyph-name="R" horiz-adv-x="1289" d="M116 1335H190Q195 1242 245 1242Q802 1242 802 983Q802 749 449 464Q404 427 375 427V408Q1209 293 1209 223Q1209 186 1172 186Q633 223 264 315V297L245 186L264 149Q245 113 245 93Q264 57 264 37L227
19H171L153 93Q134 801 134 1057L60 1150V1187H116V1335ZM245 1094V482Q444 519 635 779Q709 927 709 983Q709 1100 357 1150Q245 1125 245 1094Z" />
<glyph unicode="S" glyph-name="S" horiz-adv-x="1345" d="M1024 1298Q1158 1298 1172 1187Q1154 1187 1154 1168L1080 1187Q694 1187 412 946Q440 883 950 742Q1265 596 1265 408V260Q1176 19 672 19H635Q60 56 60 149V186Q60 212 116 241H171Q171 148 542 130H764Q1172
197 1172 353Q1172 631 486 760Q301 846 301 964V983Q301 1090 894 1279Q918 1298 1024 1298Z" />
<glyph unicode="T" glyph-name="T" horiz-adv-x="1024" d="M518 1354L611 1298H1056Q1056 1278 1074 1242Q1056 1206 1056 1187H1037Q981 1187 981 1205Q555 1166 555 1113Q555 765 611 371L592 260V149Q592 112 555 112H518Q481 112 481 149V297Q481 501 425
1168Q-24 1094 -149 1094L-168 1131V1150Q-6 1224 444 1279Q444 1354 518 1354Z" />
<glyph unicode="U" glyph-name="U" horiz-adv-x="1160" d="M894 1354H913Q1005 1354 1080 723Q1080 291 690 -18L598 -37H579Q229 -37 97 390Q60 639 60 760Q60 1058 116 1335H153Q190 1329 190 1298Q190 880 153 779Q205 56 561 56H616Q950 320 950 909Q894 1322
894 1354Z" />
<glyph unicode="V" glyph-name="V" horiz-adv-x="683" d="M668 1465H723Q723 1431 760 1317Q556 622 408 204L371 186H352Q137 526 -111 1391Q-105 1428 -74 1428Q19 1401 241 612Q270 612 315 445H334Q371 445 390 594Q552 841 668 1465Z" />
<glyph unicode="W" glyph-name="W" horiz-adv-x="1345" d="M1228 1520Q1265 1515 1265 1483Q1265 1413 1117 779Q1043 553 987 56L950 37H931Q700 239 653 445H616Q616 394 505 -74V-111H394Q394 49 60 1224Q60 1251 116 1279H171Q198 1279 227 1224Q227 1205
208 1205Q389 260 449 260Q449 455 598 631H653Q846 260 894 223Q894 315 1191 1520H1228Z" />
<glyph unicode="X" glyph-name="X" horiz-adv-x="1085" d="M894 1409H931L968 1391Q968 1306 598 649V631Q598 605 764 427L1005 37V0Q1005 -37 968 -37H931Q900 -34 690 334Q561 464 561 501H523Q320 174 245 -55H153Q153 -36 134 0Q364 490 449 612Q60 1177
60 1335H116Q171 1306 486 760H505Q894 1358 894 1409Z" />
<glyph unicode="Y" glyph-name="Y" horiz-adv-x="967" d="M950 1483Q982 1483 1005 1391L505 241Q400 -66 338 -111Q264 -83 264 -55Q560 638 579 760V779Q174 1205 97 1205Q60 1205 60 1242V1335H79Q188 1335 561 964Q616 964 616 890H635Q666 890 876 1372L950 1483Z" />
<glyph unicode="Z" glyph-name="Z" horiz-adv-x="1401" d="M965 1408H1114Q1140 1408 1169 1352V1315Q245 291 245 93H264Q987 167 1223 167H1279Q1316 161 1316 130V74Q1240 74 245 -18Q60 -4 60 37Q89 141 153 241Q523 757 965 1278V1297H724Q473 1297 317 1260Q157
1251 143 1306V1325Q187 1371 187 1352Q473 1408 965 1408Z" />
<glyph unicode="[" glyph-name="bracketleft" horiz-adv-x="788" d="M505 1404Q565 1367 709 1348V1311Q709 1274 672 1274Q630 1274 598 1292Q301 1292 301 1181Q279 772 208 278L264 112L357 131H375L561 112V56Q421 19 301 19H153L60 38V56Q116 117 116 149Q190
1188 227 1367Q393 1367 505 1404Z" />
<glyph unicode="\" glyph-name="backslash" horiz-adv-x="530" d="M21 1636Q129 1358 246 653L596 -234Q571 -287 552 -285Q472 -274 242 336Q81 769 -33 1513Q-85 1538 -73 1631L21 1636Z" />
<glyph unicode="]" glyph-name="bracketright" horiz-adv-x="622" d="M282 1381Q412 1352 412 1270H394L412 1233Q412 1214 394 1214L412 1068V864Q412 629 523 111Q542 111 542 92V74Q542 37 394 18Q394 0 375 0H171Q75 0 60 55V74Q66 111 97 111H301L394 92V167Q338
428 282 1270H227Q185 1270 153 1251Q120 1270 79 1270V1344Q244 1366 282 1381Z" />
<glyph unicode="^" glyph-name="asciicircum" horiz-adv-x="434" d="M49 1167Q60 1173 80 1188T123 1223T168 1265T205 1308Q213 1319 221 1332T236 1357T250 1375T261 1380Q265 1378 272 1377T285 1373T298 1365T307 1350Q313 1331 320 1319T338 1283Q344 1269
355 1252T380 1219T405 1190T426 1172Q448 1158 448 1137T434 1101T402 1086T367 1112Q353 1137 344 1157T331 1188Q329 1193 317 1203T291 1223Q274 1234 255 1248L245 1251L240 1234Q184 1202 137 1177Q117 1166 98 1156T62 1138T35 1124T21 1118Q15 1116 15
1121T18 1135T30 1152T49 1167Z" />
<glyph unicode="_" glyph-name="underscore" horiz-adv-x="1306" d="M329 165Q515 165 886 146Q1008 165 1127 165Q1219 141 1219 109V72Q1219 35 1182 35H1108Q1090 35 1090 54L1052 35H385Q366 35 366 54Q348 54 348 35L255 54L125 35L70 109Q70 165 329 165Z" />
<glyph unicode="a" glyph-name="a" horiz-adv-x="900" d="M505 742Q672 686 672 556L635 482L672 464L653 334V278Q653 142 709 130H727L783 167H820Q820 19 690 19Q542 19 542 334Q311 93 171 93Q60 131 60 241Q264 742 505 742ZM153 260Q179 260 208 204Q415
204 542 538V575Q542 612 505 612H486Q351 612 153 278V260Z" />
<glyph unicode="b" glyph-name="b" horiz-adv-x="733" d="M245 1354H301Q338 1348 338 1317V1261L245 594L375 612H431Q616 612 653 371Q653 37 97 -111L79 -74V-55L97 37Q60 37 60 74Q227 1110 227 1150Q245 1277 245 1354ZM153 56L190 37Q561 143 561 371Q561
519 412 519Q153 519 153 56Z" />
<glyph unicode="c" glyph-name="c" horiz-adv-x="910" d="M561 743Q673 739 673 634V615Q673 560 599 560Q538 597 506 617Q349 693 154 340V285Q154 142 376 99Q650 99 858 192H877V155Q877 31 358 -12Q61 48 61 266V359Q172 657 399 733Q506 753 561 743Z" />
<glyph unicode="d" glyph-name="d" horiz-adv-x="739" d="M773 1457Q829 1457 829 1383Q674 981 569 165Q569 91 531 91H513Q476 91 476 128Q476 180 494 499L476 592H420Q161 413 161 221Q179 185 179 165Q257 165 420 369Q457 363 457 332Q399 170 253 73H198Q92
73 68 202Q68 496 402 758H457L550 740Q718 1457 773 1457Z" />
<glyph unicode="e" glyph-name="e" horiz-adv-x="941" d="M597 839Q710 800 732 722V663Q732 578 296 408Q145 408 145 369V310Q145 200 413 174H430Q630 174 849 350Q882 344 882 310Q882 172 480 56H363Q103 56 61 310V350Q61 584 597 839ZM296 526Q593 613
597 683V702H581Q310 579 296 526Z" />
<glyph unicode="f" glyph-name="f" horiz-adv-x="711" d="M709 1483H727Q857 1483 857 1317V1279H820Q783 1279 783 1335H727Q357 938 357 519H375Q547 575 635 575L653 538V501Q357 408 357 334Q357 306 449 -55Q431 -91 431 -111H375Q320 -111 245 334Q209 334
116 297Q80 315 60 315V390Q245 423 245 538Q245 887 635 1446Q664 1446 709 1483Z" />
<glyph unicode="g" glyph-name="g" horiz-adv-x="938" d="M603 816Q862 748 862 705Q749 -199 380 -556Q217 -743 10 -815H-9Q-168 -815 -250 -612Q-231 -537 -176 -537Q-66 -693 -9 -704H47Q408 -526 584 0Q584 42 658 334Q446 149 251 149Q176 149 121 241V315Q121
512 530 798L603 816ZM232 278L269 260H306Q558 260 677 631V649L640 668H584Q380 641 232 315V278Z" />
<glyph unicode="h" glyph-name="h" horiz-adv-x="789" d="M208 1446H245L338 1428V1372Q208 1233 208 482V445Q375 705 468 705Q709 616 709 112V37L690 -55H635Q598 -55 598 -18V297Q598 470 449 594Q354 547 153 37H97Q60 37 60 93Q116 437 153 1279Q186 1279
208 1446Z" />
<glyph unicode="i" glyph-name="i" horiz-adv-x="344" d="M227 1020L264 964Q245 853 208 853H190Q79 853 79 1001Q95 1001 227 1020ZM134 612H171Q212 612 227 427H208Q208 408 227 408Q162 -74 116 -74Q69 -74 60 0Q116 348 134 612Z" />
<glyph unicode="j" glyph-name="j" horiz-adv-x="683" d="M223 1113Q297 1085 297 1057V983H205Q205 1012 168 1057V1076Q168 1113 223 1113ZM297 742H353Q385 742 369 631T353 390L371 -241Q324 -1056 112 -1056Q-212 -1056 -333 -778V-741Q-314 -705 -314 -686H-240Q-212
-799 93 -945H112Q203 -945 260 -371V0V501Q260 567 242 668Q270 742 297 742Z" />
<glyph unicode="k" glyph-name="k" horiz-adv-x="770" d="M133 1547Q226 1547 244 1473L226 1306L244 1269Q244 1251 226 1251L244 1158L245 946Q245 853 227 668Q468 964 561 964V927Q512 836 375 705Q371 673 282 556V538Q283 519 672 278Q690 246 690 204H616Q360
358 190 427V408Q171 281 171 204V130Q171 103 116 74H97L60 93L153 964L152 1047Q152 1194 133 1436L152 1473Q133 1506 133 1547Z" />
<glyph unicode="l" glyph-name="l" horiz-adv-x="344" d="M153 1409H245Q245 1354 264 1354Q171 735 134 204L153 167Q134 135 134 93Q171 33 171 0L116 -37H97Q60 -37 60 0V371L153 1409Z" />
<glyph unicode="m" glyph-name="m" horiz-adv-x="1048" d="M60 835H97Q138 835 190 631Q171 519 153 519Q171 483 171 464Q153 428 153 408H190Q377 760 523 760Q561 700 561 649V631Q561 538 542 353H561Q822 686 839 686H876Q913 612 931 223Q958 223 968 19H931Q820
72 820 519Q664 333 579 112H486Q449 278 449 353V427L468 612H431Q364 520 153 93L116 74Q84 74 60 167Q79 478 79 649V723L97 760Q60 760 60 797V835Z" />
<glyph unicode="n" glyph-name="n" horiz-adv-x="715" d="M505 909H561L579 797Q565 723 542 723L561 686Q523 492 523 390Q561 120 635 56V0H561Q445 50 431 427Q431 438 449 668Q387 612 171 186Q106 167 97 167L60 223Q60 412 97 668Q79 698 79 760Q84 797
116 797Q190 770 190 742L153 445L190 427Q218 572 505 909Z" />
<glyph unicode="o" glyph-name="o" horiz-adv-x="733" d="M431 835Q622 835 653 556V538Q653 315 338 93H264Q60 93 60 445V538Q60 736 431 835ZM171 334Q171 234 245 204H320Q490 314 523 501Q523 669 418 690Q171 665 171 408V334Z" />
<glyph unicode="p" glyph-name="p" horiz-adv-x="916" d="M635 779Q876 742 876 612Q702 367 394 241V37Q338 -729 338 -797L301 -815H264Q227 -815 227 -778Q282 -252 282 -111V149L208 167V278Q282 278 282 334V612H264L190 538H153Q61 587 60 612V631Q158 779
635 779ZM412 631V390Q667 524 764 612V649L561 686Q412 661 412 631Z" />
<glyph unicode="q" glyph-name="q" horiz-adv-x="840" d="M579 779Q690 719 690 631Q635 534 561 241V204L579 167Q714 223 746 223Q778 204 820 204V130Q649 130 523 0Q505 -418 486 -463Q505 -496 505 -537Q486 -573 486 -593H412Q375 -593 375 -556V-537Q375
-337 412 -18Q397 -18 134 -111Q97 -111 97 -74V-18Q449 92 449 223Q468 323 468 390Q296 244 190 241Q60 278 60 390Q224 779 579 779ZM171 390L227 353Q306 353 523 631V649L505 686Q232 565 171 390Z" />
<glyph unicode="r" glyph-name="r" horiz-adv-x="854" d="M97 797H171Q171 723 181 718L208 686Q244 775 561 797Q763 759 763 644L726 625Q603 676 484 669Q242 686 190 186Q153 186 153 112H116Q89 112 60 167V241Q60 313 97 705L79 742Q97 778 97 797Z" />
<glyph unicode="s" glyph-name="s" horiz-adv-x="900" d="M561 779Q603 742 690 742V668H635Q320 601 320 538Q820 371 820 186Q820 -16 394 -55H264Q60 -55 60 0V56Q66 93 97 93H134Q202 37 264 37Q698 74 727 186Q672 315 227 464Q227 493 190 538V594Q190 658
561 779Z" />
<glyph unicode="t" glyph-name="t" horiz-adv-x="845" d="M301 1446H394L412 1354V927Q412 886 431 853Q412 821 412 779Q431 779 431 760Q653 816 746 816H764V797Q731 707 412 631V612Q412 463 394 74Q412 -28 412 -74L375 -92H301Q301 -51 282 -18Q282 0 301
0Q301 42 282 74Q301 316 301 464V612L116 594Q89 594 60 649Q60 686 301 742Q301 760 320 760Q320 779 301 779Q301 799 320 835Q301 1076 301 1224V1298Q301 1317 320 1317L301 1354V1446Z" />
<glyph unicode="u" glyph-name="u" horiz-adv-x="677" d="M505 835H542Q569 835 598 779Q561 631 561 538Q561 414 598 241L561 223H523Q480 223 449 390H431L245 112H227Q116 112 60 408Q79 572 79 612Q60 714 60 760L116 797H153Q179 797 208 742Q171 562 171
538V390L190 260H208Q234 284 355 484Q387 581 468 797Q474 835 505 835Z" />
<glyph unicode="v" glyph-name="v" horiz-adv-x="733" d="M579 742H616Q653 736 653 705Q386 66 338 56H320Q203 214 60 612H116Q217 612 301 278Q338 283 505 649Q559 742 579 742Z" />
<glyph unicode="w" glyph-name="w" horiz-adv-x="913" d="M7 778H44Q147 711 285 352H304Q304 537 452 537Q582 537 674 278H693Q749 510 786 760H804Q841 754 841 723Q841 704 823 704L841 667V463Q800 74 730 74H711Q626 120 508 408L470 426Q440 426 359 111L322
93H304Q237 124 7 778Z" />
<glyph unicode="x" glyph-name="x" horiz-adv-x="807" d="M579 872Q727 872 727 779H709Q592 779 468 519Q635 387 635 278L579 241L412 408Q394 408 153 93H79V112Q79 171 301 482V519Q297 542 79 705H60V742Q66 779 97 779H116L375 612Q550 872 579 872Z" />
<glyph unicode="y" glyph-name="y" horiz-adv-x="721" d="M623 927L641 890Q641 839 456 464L363 223Q289 223 85 -500Q85 -556 48 -556H-7Q-7 -536 -26 -500Q136 31 289 427Q68 652 -7 760V797H30Q173 718 326 538L363 519Q544 927 604 927H623Z" />
<glyph unicode="z" glyph-name="z" horiz-adv-x="955" d="M542 835H598Q734 835 746 779V760L282 241L876 297V260Q876 180 320 130Q320 93 79 74L60 112V149Q432 557 561 723V742H542Q497 742 245 686Q209 705 190 705V760Q389 835 542 835Z" />
<glyph unicode="{" glyph-name="braceleft" horiz-adv-x="641" d="M435 1880H509Q536 1880 565 1824V1769Q435 1701 435 1546V1453Q435 1377 453 1305Q453 802 249 638V601Q305 440 324 -160Q431 -401 546 -401L565 -438Q565 -475 527 -475Q251 -475 212 -48Q212
557 64 656V712Q70 749 101 749H120Q161 749 194 730Q321 730 361 1212Q342 1334 342 1453V1565Q354 1880 435 1880Z" />
<glyph unicode="|" glyph-name="bar" horiz-adv-x="409" d="M148 1813H204Q230 1813 259 1758V1665Q204 1158 204 1053L278 52L222 15H204Q177 15 148 70V126Q148 145 167 145L148 182V237Q148 256 167 256L148 293V423Q111 970 111 1016V1109Q111 1443 148 1813Z" />
<glyph unicode="}" glyph-name="braceright" horiz-adv-x="808" d="M328 1808Q495 1744 495 1623Q495 1466 384 1011Q422 603 680 603L717 548Q717 510 513 492Q458 313 402 -231Q334 -491 124 -491H106Q50 -472 50 -454Q50 -398 217 -361Q305 -88 421 622Q352
622 272 974Q384 1481 384 1604Q384 1678 310 1715Q277 1697 235 1697L217 1734Q217 1771 328 1808Z" />
<glyph unicode="~" glyph-name="asciitilde" horiz-adv-x="1123" d="M282 705Q356 705 857 501H876Q912 519 931 519V556H894Q938 668 968 668H1024V649L1043 482Q1007 398 968 390Q779 390 375 594H320Q134 562 134 427H60V538Q60 680 282 705Z" />
</font>
</defs>
</svg>
