<svg xmlns="http://www.w3.org/2000/svg" viewBox="0 0 11 11"><rect x="3" y="2" width="5" height="1" fill="#fff"/><rect x="3" y="4" width="5" height="1" fill="#fff"/><rect x="3" y="6" width="5" height="1" fill="#fff"/><path d="M9.052 0.001l0.051 0.002 0.051 0.003 0.051 0.005 0.05 0.006 0.05 0.007 0.05 0.009 0.049 0.009 0.049 0.011 0.048 0.012 0.048 0.013 0.047 0.014 0.047 0.015 0.046 0.017 0.046 0.017 0.045 0.019 0.045 0.019 0.044 0.021 0.043 0.021 0.043 0.023 0.042 0.024 0.042 0.024 0.041 0.026 0.04 0.026 0.039 0.028 0.039 0.028 0.038 0.03 0.038 0.03 0.036 0.031 0.036 0.032 0.035 0.032 0.035 0.034 0.033 0.034 0.033 0.035 0.032 0.036 0.031 0.037 0.03 0.037 0.029 0.038 0.028 0.039 0.027 0.04 0.027 0.04 0.025 0.041 0.025 0.041 0.023 0.042 0.023 0.043 0.021 0.043 0.021 0.044 0.019 0.045 0.019 0.045 0.017 0.045 0.016 0.046 0.015 0.047 0.014 0.047 0.013 0.048 0.012 0.048 0.011 0.048 0.009 0.049 0.008 0.049 0.007 0.05 0.006 0.05 0.004 0.051 0.003 0.05 0.002 0.052 0.001 0.051 0 5 -0.001 0.052 -0.002 0.051 -0.003 0.051 -0.004 0.05 -0.006 0.051 -0.007 0.049 -0.008 0.05 -0.01 0.049 -0.01 0.048 -0.012 0.049 -0.013 0.047 -0.014 0.047 -0.015 0.047 -0.016 0.046 -0.018 0.046 -0.018 0.045 -0.02 0.045 -0.02 0.044 -0.022 0.043 -0.023 0.043 -0.023 0.042 -0.025 0.042 -0.025 0.041 -0.027 0.04 -0.027 0.039 -0.029 0.039 -0.029 0.038 -0.03 0.038 -0.031 0.037 -0.032 0.035 -0.033 0.036 -0.033 0.034 -0.034 0.033 -0.036 0.033 -0.035 0.032 -0.037 0.031 -0.038 0.03 -0.038 0.029 -0.039 0.029 -0.039 0.027 -0.04 0.027 -0.041 0.025 -0.042 0.025 -0.042 0.023 -0.043 0.023 -0.043 0.022 -0.044 0.02 -0.045 0.02 -0.045 0.018 -0.046 0.018 -0.046 0.016 -0.047 0.015 -0.047 0.014 -0.047 0.013 -0.049 0.012 -0.048 0.01 -0.049 0.01 -0.05 0.008 -0.049 0.007 -0.051 0.006 -0.05 0.004 -0.051 0.003 -0.051 0.002 -0.052 0.001 -2.32 0 -2.639 2 -1.041 0 0-2 -1 0 -0.052-0.001 -0.051-0.002 -0.051-0.003 -0.05-0.004 -0.051-0.006 -0.049-0.007 -0.05-0.008 -0.049-0.01 -0.048-0.01 -0.049-0.012 -0.047-0.013 -0.047-0.014 -0.047-0.015 -0.046-0.016 -0.046-0.018 -0.045-0.018 -0.045-0.02 -0.044-0.02 -0.043-0.022 -0.043-0.023 -0.042-0.023 -0.042-0.025 -0.041-0.025 -0.04-0.027 -0.039-0.027 -0.039-0.029 -0.038-0.029 -0.038-0.03 -0.037-0.031 -0.035-0.032 -0.036-0.033 -0.034-0.033 -0.033-0.034 -0.033-0.036 -0.032-0.035 -0.031-0.037 -0.03-0.038 -0.029-0.038 -0.029-0.039 -0.027-0.039 -0.027-0.04 -0.025-0.041 -0.025-0.042 -0.023-0.042 -0.023-0.043 -0.022-0.043 -0.02-0.044 -0.02-0.045 -0.018-0.045 -0.018-0.046 -0.016-0.046 -0.015-0.047 -0.014-0.047 -0.013-0.047 -0.012-0.049 -0.01-0.048 -0.01-0.049 -0.008-0.05 -0.007-0.049 -0.006-0.051 -0.004-0.05 -0.003-0.051 -0.002-0.051 -0.001-0.052 0-5 0.001-0.051 0.002-0.052 0.003-0.05 0.004-0.051 0.006-0.05 0.007-0.05 0.008-0.049 0.009-0.049 0.011-0.048 0.012-0.048 0.013-0.048 0.014-0.047 0.015-0.047 0.016-0.046 0.017-0.045 0.019-0.045 0.019-0.045 0.021-0.044 0.021-0.043 0.023-0.043 0.023-0.042 0.025-0.041 0.025-0.041 0.027-0.04 0.027-0.04 0.028-0.039 0.029-0.038 0.03-0.037 0.031-0.037 0.032-0.036 0.033-0.035 0.033-0.034 0.035-0.034 0.035-0.032 0.036-0.032 0.036-0.031 0.038-0.03 0.038-0.03 0.039-0.028 0.039-0.028 0.04-0.026 0.041-0.026 0.042-0.024 0.042-0.024 0.043-0.023 0.043-0.021 0.044-0.021 0.045-0.019 0.045-0.019 0.046-0.017 0.046-0.017 0.047-0.015 0.047-0.014 0.048-0.013 0.048-0.012 0.049-0.011 0.049-0.009 0.05-0.009 0.05-0.007 0.05-0.006 0.051-0.005 0.051-0.003 0.051-0.002 0.052-0.001 7 0 0.052 0.001ZM2.008 1l-0.031 0.001 -0.026 0.001 -0.026 0.001 -0.026 0.003 -0.025 0.003 -0.026 0.003 -0.025 0.005 -0.024 0.004 -0.025 0.006 -0.024 0.006 -0.024 0.006 -0.023 0.007 -0.024 0.008 -0.023 0.008 -0.023 0.009 -0.022 0.009 -0.022 0.01 -0.022 0.01 -0.022 0.011 -0.022 0.011 -0.021 0.012 -0.021 0.013 -0.02 0.012 -0.02 0.014 -0.02 0.013 -0.02 0.015 -0.019 0.014 -0.019 0.016 -0.018 0.015 -0.018 0.016 -0.018 0.017 -0.017 0.017 -0.017 0.017 -0.016 0.018 -0.016 0.018 -0.016 0.018 -0.015 0.019 -0.015 0.019 -0.014 0.019 -0.014 0.02 -0.013 0.02 -0.012 0.021 -0.013 0.02 -0.011 0.021 -0.012 0.022 -0.01 0.021 -0.011 0.022 -0.009 0.022 -0.009 0.022 -0.009 0.023 -0.008 0.023 -0.007 0.023 -0.007 0.023 -0.007 0.024 -0.005 0.023 -0.006 0.024 -0.004 0.025 -0.004 0.024 -0.004 0.025 -0.003 0.025 -0.002 0.025 -0.002 0.026 -0.001 0.026 0 0.032 0 4.988 0 0.032 0.001 0.026 0.002 0.026 0.002 0.025 0.003 0.025 0.004 0.025 0.004 0.025 0.004 0.024 0.006 0.024 0.005 0.024 0.007 0.024 0.007 0.023 0.007 0.023 0.008 0.023 0.009 0.023 0.009 0.022 0.01 0.023 0.01 0.021 0.011 0.022 0.011 0.021 0.012 0.022 0.012 0.02 0.013 0.021 0.013 0.02 0.014 0.02 0.014 0.019 0.015 0.019 0.015 0.019 0.016 0.019 0.016 0.018 0.016 0.017 0.017 0.018 0.018 0.017 0.017 0.016 0.018 0.016 0.019 0.016 0.019 0.015 0.019 0.015 0.019 0.014 0.02 0.014 0.02 0.013 0.021 0.013 0.02 0.012 0.022 0.012 0.021 0.011 0.022 0.011 0.021 0.01 0.023 0.01 0.022 0.009 0.023 0.009 0.023 0.008 0.023 0.007 0.023 0.007 0.024 0.007 0.024 0.005 0.024 0.006 0.024 0.004 0.025 0.004 0.025 0.004 0.025 0.003 0.025 0.002 0.026 0.002 0.026 0.001 0.032 0 1.994 0 0 1.776 2.344-1.776 2.65 0 0.032 0 0.026-0.001 0.026-0.002 0.025-0.002 0.025-0.003 0.025-0.004 0.025-0.004 0.024-0.004 0.024-0.006 0.024-0.005 0.024-0.007 0.023-0.007 0.023-0.007 0.023-0.008 0.023-0.009 0.022-0.009 0.023-0.01 0.021-0.01 0.022-0.011 0.021-0.011 0.022-0.012 0.02-0.012 0.021-0.013 0.02-0.013 0.02-0.014 0.019-0.014 0.019-0.015 0.019-0.015 0.019-0.016 0.018-0.016 0.017-0.016 0.018-0.017 0.017-0.018 0.016-0.017 0.016-0.018 0.016-0.019 0.015-0.019 0.015-0.019 0.014-0.019 0.014-0.02 0.013-0.02 0.013-0.021 0.012-0.02 0.012-0.022 0.011-0.021 0.011-0.022 0.01-0.021 0.01-0.023 0.009-0.022 0.009-0.023 0.008-0.023 0.007-0.023 0.007-0.023 0.007-0.024 0.005-0.024 0.006-0.024 0.004-0.024 0.004-0.025 0.004-0.025 0.003-0.025 0.002-0.025 0.002-0.026 0.001-0.026 0-0.032 0-4.988 0-0.032 -0.001-0.026 -0.002-0.026 -0.002-0.025 -0.003-0.025 -0.004-0.025 -0.004-0.024 -0.004-0.025 -0.006-0.024 -0.005-0.023 -0.007-0.024 -0.007-0.023 -0.007-0.023 -0.008-0.023 -0.009-0.023 -0.009-0.022 -0.009-0.022 -0.011-0.022 -0.01-0.021 -0.012-0.022 -0.011-0.021 -0.013-0.02 -0.012-0.021 -0.013-0.02 -0.014-0.02 -0.014-0.019 -0.015-0.019 -0.015-0.019 -0.016-0.018 -0.016-0.019 -0.016-0.017 -0.017-0.017 -0.017-0.017 -0.018-0.017 -0.018-0.016 -0.018-0.015 -0.019-0.016 -0.019-0.014 -0.02-0.015 -0.02-0.013 -0.02-0.014 -0.02-0.012 -0.021-0.013 -0.021-0.012 -0.022-0.011 -0.022-0.011 -0.022-0.01 -0.022-0.01 -0.022-0.009 -0.023-0.009 -0.023-0.008 -0.024-0.008 -0.023-0.007 -0.024-0.006 -0.024-0.006 -0.025-0.006 -0.024-0.004 -0.025-0.005 -0.026-0.003 -0.025-0.003 -0.026-0.003 -0.026-0.001 -0.026-0.001 -0.031-0.001 -6.984 0Z" fill="#fff"/></svg>