<?xml version="1.0" encoding="UTF-8" standalone="no"?><!DOCTYPE svg PUBLIC "-//W3C//DTD SVG 1.1//EN" "http://www.w3.org/Graphics/SVG/1.1/DTD/svg11.dtd"><svg width="100%" height="100%" viewBox="0 0 11 12" version="1.1" xmlns="http://www.w3.org/2000/svg" xmlns:xlink="http://www.w3.org/1999/xlink" xml:space="preserve" style="fill-rule:evenodd;clip-rule:evenodd;stroke-linejoin:round;stroke-miterlimit:1.41421;"><g id="stripe-lock"><path d="M9.052,4.001l0.051,0.002l0.051,0.003l0.05,0.004l0.051,0.006l0.049,0.007l0.05,0.008l0.049,0.01l0.048,0.01l0.049,0.012l0.047,0.013l0.047,0.014l0.047,0.015l0.046,0.016l0.046,0.018l0.045,0.018l0.045,0.02l0.044,0.02l0.043,0.022l0.043,0.023l0.042,0.023l0.042,0.025l0.041,0.025l0.04,0.027l0.039,0.027l0.039,0.029l0.038,0.029l0.038,0.03l0.037,0.031l0.035,0.032l0.036,0.033l0.034,0.033l0.033,0.034l0.033,0.036l0.032,0.035l0.031,0.037l0.03,0.038l0.029,0.038l0.029,0.039l0.027,0.039l0.027,0.04l0.025,0.041l0.025,0.042l0.023,0.042l0.023,0.043l0.022,0.043l0.02,0.044l0.02,0.045l0.018,0.045l0.018,0.046l0.016,0.046l0.015,0.047l0.014,0.047l0.013,0.047l0.012,0.049l0.01,0.048l0.01,0.049l0.008,0.05l0.007,0.049l0.006,0.051l0.004,0.05l0.003,0.051l0.002,0.051l0.001,0.052l0,4l-0.001,0.052l-0.002,0.051l-0.003,0.051l-0.004,0.05l-0.006,0.051l-0.007,0.049l-0.008,0.05l-0.01,0.049l-0.01,0.048l-0.012,0.049l-0.013,0.047l-0.014,0.047l-0.015,0.047l-0.016,0.046l-0.018,0.046l-0.018,0.045l-0.02,0.045l-0.02,0.044l-0.022,0.043l-0.023,0.043l-0.023,0.042l-0.025,0.042l-0.025,0.041l-0.027,0.04l-0.027,0.039l-0.029,0.039l-0.029,0.038l-0.03,0.038l-0.031,0.037l-0.032,0.035l-0.033,0.036l-0.033,0.034l-0.034,0.033l-0.036,0.033l-0.035,0.032l-0.037,0.031l-0.038,0.03l-0.038,0.029l-0.039,0.029l-0.039,0.027l-0.04,0.027l-0.041,0.025l-0.042,0.025l-0.042,0.023l-0.043,0.023l-0.043,0.022l-0.044,0.02l-0.045,0.02l-0.045,0.018l-0.046,0.018l-0.046,0.016l-0.047,0.015l-0.047,0.014l-0.047,0.013l-0.049,0.012l-0.048,0.01l-0.049,0.01l-0.05,0.008l-0.049,0.007l-0.051,0.006l-0.05,0.004l-0.051,0.003l-0.051,0.002l-0.052,0.001l-7,0l-0.052,-0.001l-0.051,-0.002l-0.051,-0.003l-0.05,-0.004l-0.051,-0.006l-0.049,-0.007l-0.05,-0.008l-0.049,-0.01l-0.048,-0.01l-0.049,-0.012l-0.047,-0.013l-0.047,-0.014l-0.047,-0.015l-0.046,-0.016l-0.046,-0.018l-0.045,-0.018l-0.045,-0.02l-0.044,-0.02l-0.043,-0.022l-0.043,-0.023l-0.042,-0.023l-0.042,-0.025l-0.041,-0.025l-0.04,-0.027l-0.039,-0.027l-0.039,-0.029l-0.038,-0.029l-0.038,-0.03l-0.037,-0.031l-0.035,-0.032l-0.036,-0.033l-0.034,-0.033l-0.033,-0.034l-0.033,-0.036l-0.032,-0.035l-0.031,-0.037l-0.03,-0.038l-0.029,-0.038l-0.029,-0.039l-0.027,-0.039l-0.027,-0.04l-0.025,-0.041l-0.025,-0.042l-0.023,-0.042l-0.023,-0.043l-0.022,-0.043l-0.02,-0.044l-0.02,-0.045l-0.018,-0.045l-0.018,-0.046l-0.016,-0.046l-0.015,-0.047l-0.014,-0.047l-0.013,-0.047l-0.012,-0.049l-0.01,-0.048l-0.01,-0.049l-0.008,-0.05l-0.007,-0.049l-0.006,-0.051l-0.004,-0.05l-0.003,-0.051l-0.002,-0.051l-0.001,-0.052l0,-4l0.001,-0.052l0.002,-0.051l0.003,-0.051l0.004,-0.05l0.006,-0.051l0.007,-0.049l0.008,-0.05l0.01,-0.049l0.01,-0.048l0.012,-0.049l0.013,-0.047l0.014,-0.047l0.015,-0.047l0.016,-0.046l0.018,-0.046l0.018,-0.045l0.02,-0.045l0.02,-0.044l0.022,-0.043l0.023,-0.043l0.023,-0.042l0.025,-0.042l0.025,-0.041l0.027,-0.04l0.027,-0.039l0.029,-0.039l0.029,-0.038l0.03,-0.038l0.031,-0.037l0.032,-0.035l0.033,-0.036l0.033,-0.034l0.034,-0.033l0.036,-0.033l0.035,-0.032l0.037,-0.031l0.038,-0.03l0.038,-0.029l0.039,-0.029l0.039,-0.027l0.04,-0.027l0.041,-0.025l0.042,-0.025l0.042,-0.023l0.043,-0.023l0.043,-0.022l0.044,-0.02l0.045,-0.02l0.045,-0.018l0.046,-0.018l0.046,-0.016l0.047,-0.015l0.047,-0.014l0.047,-0.013l0.049,-0.012l0.048,-0.01l0.049,-0.01l0.05,-0.008l0.049,-0.007l0.051,-0.006l0.05,-0.004l0.051,-0.003l0.051,-0.002l0.052,-0.001l7,0l0.052,0.001ZM2.006,5l-0.032,0l-0.026,0.001l-0.026,0.002l-0.025,0.002l-0.025,0.003l-0.025,0.004l-0.025,0.004l-0.024,0.004l-0.024,0.006l-0.024,0.005l-0.024,0.007l-0.023,0.007l-0.023,0.007l-0.023,0.008l-0.023,0.009l-0.022,0.009l-0.023,0.01l-0.021,0.01l-0.022,0.011l-0.021,0.011l-0.022,0.012l-0.02,0.012l-0.021,0.013l-0.02,0.013l-0.02,0.014l-0.019,0.014l-0.019,0.015l-0.019,0.015l-0.019,0.016l-0.018,0.016l-0.017,0.016l-0.018,0.017l-0.017,0.018l-0.016,0.017l-0.016,0.018l-0.016,0.019l-0.015,0.019l-0.015,0.019l-0.014,0.019l-0.014,0.02l-0.013,0.02l-0.013,0.021l-0.012,0.021l-0.012,0.021l-0.011,0.021l-0.011,0.022l-0.01,0.021l-0.01,0.023l-0.009,0.022l-0.009,0.023l-0.008,0.023l-0.007,0.023l-0.007,0.023l-0.007,0.024l-0.005,0.024l-0.006,0.024l-0.004,0.024l-0.004,0.025l-0.004,0.025l-0.003,0.025l-0.002,0.025l-0.002,0.026l-0.001,0.026l0,0.032l0,3.988l0,0.032l0.001,0.026l0.002,0.026l0.002,0.025l0.003,0.025l0.004,0.025l0.004,0.025l0.004,0.024l0.006,0.024l0.005,0.024l0.007,0.024l0.007,0.023l0.007,0.023l0.008,0.023l0.009,0.023l0.009,0.022l0.01,0.023l0.01,0.021l0.011,0.022l0.011,0.021l0.012,0.021l0.012,0.021l0.013,0.021l0.013,0.02l0.014,0.02l0.014,0.019l0.015,0.019l0.015,0.019l0.016,0.019l0.016,0.018l0.016,0.018l0.017,0.017l0.018,0.017l0.017,0.016l0.018,0.016l0.019,0.016l0.019,0.015l0.019,0.015l0.019,0.014l0.02,0.014l0.02,0.013l0.021,0.013l0.02,0.012l0.022,0.012l0.021,0.011l0.022,0.011l0.021,0.01l0.023,0.01l0.022,0.009l0.023,0.009l0.023,0.008l0.023,0.007l0.023,0.007l0.024,0.007l0.024,0.005l0.024,0.006l0.024,0.004l0.025,0.004l0.025,0.004l0.025,0.003l0.025,0.002l0.026,0.002l0.026,0.001l0.032,0l6.988,0l0.032,0l0.026,-0.001l0.026,-0.002l0.025,-0.002l0.025,-0.003l0.025,-0.004l0.025,-0.004l0.024,-0.004l0.024,-0.006l0.024,-0.005l0.024,-0.007l0.023,-0.007l0.023,-0.007l0.023,-0.008l0.023,-0.009l0.022,-0.009l0.023,-0.01l0.021,-0.01l0.022,-0.011l0.021,-0.011l0.022,-0.012l0.02,-0.012l0.021,-0.013l0.02,-0.013l0.02,-0.014l0.019,-0.014l0.019,-0.015l0.019,-0.015l0.019,-0.016l0.018,-0.016l0.018,-0.016l0.017,-0.017l0.017,-0.017l0.016,-0.018l0.016,-0.018l0.016,-0.019l0.015,-0.019l0.015,-0.019l0.014,-0.019l0.014,-0.02l0.013,-0.02l0.013,-0.021l0.012,-0.021l0.012,-0.021l0.011,-0.021l0.011,-0.022l0.01,-0.021l0.01,-0.023l0.009,-0.022l0.009,-0.023l0.008,-0.023l0.007,-0.023l0.007,-0.023l0.007,-0.024l0.005,-0.024l0.006,-0.024l0.004,-0.024l0.004,-0.025l0.004,-0.025l0.003,-0.025l0.002,-0.025l0.002,-0.026l0.001,-0.026l0,-0.032l0,-3.988l0,-0.032l-0.001,-0.026l-0.002,-0.026l-0.002,-0.025l-0.003,-0.025l-0.004,-0.025l-0.004,-0.025l-0.004,-0.024l-0.006,-0.024l-0.005,-0.024l-0.007,-0.024l-0.007,-0.023l-0.007,-0.023l-0.008,-0.023l-0.009,-0.023l-0.009,-0.022l-0.01,-0.023l-0.01,-0.021l-0.011,-0.022l-0.011,-0.021l-0.012,-0.021l-0.012,-0.021l-0.013,-0.021l-0.013,-0.02l-0.014,-0.02l-0.014,-0.019l-0.015,-0.019l-0.015,-0.019l-0.016,-0.019l-0.016,-0.018l-0.016,-0.017l-0.017,-0.018l-0.017,-0.017l-0.018,-0.016l-0.018,-0.016l-0.019,-0.016l-0.019,-0.015l-0.019,-0.015l-0.019,-0.014l-0.02,-0.014l-0.02,-0.013l-0.021,-0.013l-0.021,-0.012l-0.021,-0.012l-0.021,-0.011l-0.022,-0.011l-0.021,-0.01l-0.023,-0.01l-0.022,-0.009l-0.023,-0.009l-0.023,-0.008l-0.023,-0.007l-0.023,-0.007l-0.024,-0.007l-0.024,-0.005l-0.024,-0.006l-0.024,-0.004l-0.025,-0.004l-0.025,-0.004l-0.025,-0.003l-0.025,-0.002l-0.026,-0.002l-0.026,-0.001l-0.032,0l-6.988,0Z" style="fill:#2b2b2b;"/><path d="M5.522,0l0.045,0.001l0.045,0.002l0.045,0.003l0.045,0.003l0.044,0.004l0.044,0.004l0.045,0.006l0.044,0.006l0.043,0.006l0.044,0.007l0.044,0.008l0.043,0.009l0.043,0.009l0.043,0.01l0.043,0.011l0.043,0.011l0.042,0.012l0.042,0.013l0.042,0.013l0.042,0.014l0.042,0.014l0.041,0.015l0.041,0.016l0.041,0.016l0.041,0.017l0.04,0.018l0.041,0.018l0.04,0.018l0.04,0.02l0.039,0.02l0.04,0.02l0.039,0.021l0.039,0.022l0.038,0.022l0.039,0.023l0.038,0.023l0.038,0.024l0.037,0.024l0.038,0.025l0.037,0.026l0.036,0.026l0.037,0.027l0.036,0.027l0.036,0.027l0.036,0.029l0.035,0.028l0.035,0.03l0.035,0.029l0.034,0.031l0.035,0.03l0.033,0.032l0.034,0.031l0.033,0.033l0.033,0.032l0.033,0.034l0.032,0.033l0.032,0.034l0.031,0.035l0.032,0.035l0.031,0.036l0.03,0.036l0.03,0.036l0.03,0.037l0.03,0.037l0.029,0.038l0.029,0.038l0.028,0.039l0.028,0.039l0.028,0.04l0.027,0.039l0.027,0.041l0.027,0.04l0.026,0.042l0.026,0.041l0.025,0.042l0.025,0.042l0.025,0.043l0.024,0.043l0.024,0.044l0.023,0.043l0.023,0.045l0.023,0.044l0.022,0.045l0.022,0.045l0.021,0.046l0.021,0.046l0.02,0.046l0.02,0.047l0.02,0.047l0.019,0.047l0.019,0.048l0.018,0.048l0.018,0.048l0.017,0.049l0.017,0.049l0.016,0.049l0.016,0.049l0.015,0.05l0.015,0.05l0.015,0.051l0.014,0.05l0.013,0.051l0.013,0.052l0.013,0.051l0.012,0.052l0.012,0.052l0.011,0.052l0.01,0.053l0.01,0.052l0.01,0.053l0.009,0.054l0.008,0.053l0.008,0.054l0.008,0.054l0.007,0.054l0.006,0.054l0.006,0.055l0.005,0.055l0.005,0.055l0.004,0.055l0.004,0.056l0.003,0.055l0.002,0.056l0.002,0.056l0.002,0.056l0.001,0.056l0,0.057l-0.001,0.08l-0.001,0.079l-0.003,0.079l-0.005,0.079l-0.005,0.078l-0.007,0.077l-0.008,0.077l-0.005,0.038l-0.005,0.038l-6.92,0l-0.005,-0.038l-0.005,-0.038l-0.008,-0.077l-0.007,-0.077l-0.006,-0.078l-0.004,-0.079l-0.003,-0.079l-0.002,-0.079l0,-0.08l0,-0.057l0.001,-0.056l0.001,-0.056l0.002,-0.056l0.003,-0.056l0.003,-0.055l0.004,-0.056l0.004,-0.055l0.005,-0.055l0.005,-0.055l0.006,-0.055l0.006,-0.054l0.007,-0.054l0.008,-0.054l0.008,-0.054l0.008,-0.053l0.009,-0.054l0.01,-0.053l0.01,-0.052l0.01,-0.053l0.011,-0.052l0.012,-0.052l0.012,-0.052l0.012,-0.051l0.013,-0.052l0.014,-0.051l0.014,-0.05l0.014,-0.051l0.015,-0.05l0.016,-0.05l0.016,-0.049l0.016,-0.049l0.017,-0.049l0.017,-0.049l0.018,-0.048l0.018,-0.048l0.019,-0.048l0.019,-0.047l0.02,-0.047l0.02,-0.047l0.02,-0.046l0.021,-0.046l0.021,-0.046l0.022,-0.045l0.022,-0.045l0.023,-0.044l0.023,-0.045l0.023,-0.043l0.024,-0.044l0.024,-0.043l0.025,-0.043l0.025,-0.042l0.025,-0.042l0.026,-0.041l0.026,-0.042l0.027,-0.04l0.026,-0.041l0.028,-0.039l0.028,-0.04l0.028,-0.039l0.028,-0.039l0.029,-0.038l0.029,-0.038l0.03,-0.037l0.029,-0.037l0.031,-0.036l0.03,-0.036l0.031,-0.036l0.031,-0.035l0.032,-0.035l0.032,-0.034l0.032,-0.033l0.033,-0.034l0.033,-0.032l0.033,-0.033l0.033,-0.031l0.034,-0.032l0.034,-0.03l0.035,-0.031l0.035,-0.029l0.035,-0.03l0.035,-0.028l0.036,-0.029l0.036,-0.027l0.036,-0.027l0.036,-0.027l0.037,-0.026l0.037,-0.026l0.037,-0.025l0.038,-0.024l0.038,-0.024l0.038,-0.023l0.038,-0.023l0.039,-0.022l0.039,-0.022l0.039,-0.021l0.039,-0.02l0.04,-0.02l0.04,-0.02l0.04,-0.018l0.04,-0.018l0.041,-0.018l0.041,-0.017l0.041,-0.016l0.041,-0.016l0.041,-0.015l0.042,-0.014l0.042,-0.014l0.042,-0.013l0.042,-0.013l0.042,-0.012l0.043,-0.011l0.043,-0.011l0.043,-0.01l0.043,-0.009l0.043,-0.009l0.044,-0.008l0.043,-0.007l0.044,-0.006l0.044,-0.006l0.044,-0.006l0.045,-0.004l0.044,-0.004l0.045,-0.003l0.045,-0.003l0.045,-0.002l0.045,-0.001l0.045,0l0.045,0ZM5.448,1l-0.03,0.001l-0.029,0.001l-0.029,0.002l-0.029,0.002l-0.028,0.002l-0.029,0.003l-0.029,0.004l-0.028,0.004l-0.028,0.004l-0.029,0.005l-0.028,0.005l-0.028,0.005l-0.028,0.006l-0.028,0.007l-0.028,0.007l-0.028,0.007l-0.028,0.008l-0.027,0.008l-0.028,0.009l-0.028,0.009l-0.027,0.009l-0.027,0.01l-0.028,0.011l-0.027,0.011l-0.027,0.011l-0.027,0.012l-0.028,0.012l-0.027,0.012l-0.027,0.014l-0.026,0.013l-0.027,0.014l-0.027,0.014l-0.027,0.015l-0.026,0.016l-0.027,0.015l-0.026,0.016l-0.026,0.017l-0.027,0.017l-0.026,0.018l-0.026,0.018l-0.026,0.018l-0.026,0.019l-0.025,0.019l-0.026,0.02l-0.025,0.02l-0.026,0.021l-0.025,0.021l-0.025,0.021l-0.025,0.022l-0.025,0.022l-0.025,0.023l-0.024,0.023l-0.025,0.024l-0.024,0.024l-0.024,0.025l-0.024,0.025l-0.023,0.025l-0.024,0.026l-0.023,0.026l-0.023,0.026l-0.023,0.027l-0.023,0.028l-0.023,0.028l-0.022,0.028l-0.022,0.029l-0.022,0.029l-0.022,0.029l-0.021,0.03l-0.021,0.03l-0.021,0.031l-0.021,0.031l-0.02,0.031l-0.021,0.032l-0.02,0.032l-0.019,0.033l-0.02,0.033l-0.019,0.033l-0.019,0.033l-0.018,0.034l-0.019,0.034l-0.018,0.035l-0.017,0.035l-0.018,0.036l-0.017,0.035l-0.017,0.036l-0.016,0.036l-0.016,0.037l-0.016,0.037l-0.016,0.037l-0.015,0.038l-0.015,0.038l-0.014,0.038l-0.014,0.039l-0.014,0.038l-0.014,0.039l-0.013,0.04l-0.013,0.04l-0.012,0.039l-0.012,0.041l-0.012,0.04l-0.011,0.041l-0.011,0.041l-0.01,0.041l-0.01,0.042l-0.01,0.042l-0.009,0.042l-0.009,0.042l-0.009,0.043l-0.008,0.042l-0.008,0.043l-0.007,0.044l-0.007,0.043l-0.006,0.044l-0.007,0.043l-0.005,0.045l-0.005,0.044l-0.005,0.044l-0.004,0.045l-0.004,0.036l4.969,0l-0.003,-0.036l-0.004,-0.045l-0.005,-0.044l-0.005,-0.044l-0.006,-0.045l-0.006,-0.043l-0.006,-0.044l-0.007,-0.044l-0.007,-0.043l-0.008,-0.043l-0.008,-0.042l-0.009,-0.043l-0.009,-0.042l-0.009,-0.042l-0.01,-0.042l-0.01,-0.042l-0.01,-0.041l-0.011,-0.041l-0.012,-0.041l-0.011,-0.04l-0.012,-0.041l-0.013,-0.039l-0.012,-0.04l-0.014,-0.04l-0.013,-0.039l-0.014,-0.038l-0.014,-0.039l-0.014,-0.038l-0.015,-0.038l-0.015,-0.038l-0.016,-0.037l-0.016,-0.037l-0.016,-0.037l-0.017,-0.036l-0.016,-0.036l-0.017,-0.036l-0.018,-0.035l-0.018,-0.035l-0.018,-0.034l-0.018,-0.035l-0.018,-0.034l-0.019,-0.033l-0.019,-0.034l-0.02,-0.032l-0.02,-0.033l-0.02,-0.032l-0.02,-0.032l-0.02,-0.031l-0.021,-0.031l-0.021,-0.031l-0.021,-0.03l-0.022,-0.03l-0.021,-0.029l-0.022,-0.029l-0.022,-0.029l-0.023,-0.028l-0.022,-0.028l-0.023,-0.028l-0.023,-0.027l-0.023,-0.026l-0.023,-0.026l-0.024,-0.026l-0.024,-0.026l-0.023,-0.024l-0.024,-0.025l-0.025,-0.024l-0.024,-0.024l-0.025,-0.023l-0.024,-0.023l-0.025,-0.022l-0.025,-0.022l-0.025,-0.021l-0.025,-0.022l-0.026,-0.02l-0.025,-0.02l-0.026,-0.02l-0.026,-0.019l-0.025,-0.019l-0.026,-0.018l-0.026,-0.018l-0.027,-0.018l-0.026,-0.017l-0.026,-0.017l-0.026,-0.016l-0.027,-0.015l-0.027,-0.016l-0.026,-0.015l-0.027,-0.014l-0.027,-0.014l-0.027,-0.013l-0.027,-0.014l-0.027,-0.012l-0.027,-0.012l-0.027,-0.012l-0.027,-0.011l-0.027,-0.011l-0.028,-0.011l-0.027,-0.01l-0.028,-0.009l-0.027,-0.009l-0.028,-0.009l-0.028,-0.008l-0.027,-0.008l-0.028,-0.007l-0.028,-0.007l-0.028,-0.007l-0.028,-0.006l-0.028,-0.005l-0.028,-0.005l-0.029,-0.005l-0.028,-0.005l-0.029,-0.003l-0.028,-0.004l-0.029,-0.003l-0.029,-0.002l-0.028,-0.002l-0.029,-0.002l-0.029,-0.001l-0.03,-0.001l-0.029,0l-0.029,0Z" style="fill:#2b2b2b;"/></g></svg>