<svg xmlns="http://www.w3.org/2000/svg" width="100" height="100" viewBox="0 0 11 11" version="1.1" xml:space="preserve" style="clip-rule:evenodd;fill-rule:evenodd;stroke-linejoin:round;stroke-miterlimit:1"><path d="M5.529 0.001l0.028 0.001 0.029 0.003 0.028 0.003 0.027 0.005 0.028 0.005 0.027 0.006 0.027 0.008 0.027 0.008 0.026 0.009 0.026 0.01 0.026 0.011 0.025 0.011 0.025 0.013 0.024 0.013 0.024 0.014 0.023 0.015 0.023 0.016 0.022 0.016 0.022 0.018 0.021 0.018 0.02 0.018 0.02 0.02 0.019 0.02 0.019 0.021 0.018 0.022 0.017 0.022 0.016 0.023 0.016 0.023 0.015 0.024 0.014 0.025 0.013 0.026 4.691 9.381 0.011 0.023 0.01 0.024 0.01 0.025 0.009 0.024 0.008 0.024 0.008 0.025 0.006 0.025 0.006 0.025 0.005 0.025 0.004 0.026 0.003 0.025 0.002 0.025 0.002 0.026 0.001 0.025 0 0.026 -0.001 0.025 -0.001 0.026 -0.003 0.025 -0.003 0.025 -0.004 0.025 -0.005 0.025 -0.005 0.025 -0.006 0.025 -0.007 0.025 -0.008 0.024 -0.009 0.024 -0.01 0.024 -0.01 0.024 -0.011 0.024 -0.012 0.023 -0.012 0.023 -0.014 0.022 -0.014 0.022 -0.015 0.022 -0.015 0.021 -0.016 0.02 -0.017 0.02 -0.017 0.019 -0.018 0.019 -0.018 0.018 -0.019 0.017 -0.019 0.017 -0.02 0.016 -0.021 0.015 -0.02 0.015 -0.022 0.014 -0.021 0.014 -0.022 0.013 -0.023 0.012 -0.022 0.011 -0.024 0.011 -0.023 0.009 -0.024 0.01 -0.024 0.008 -0.024 0.008 -0.025 0.007 -0.025 0.006 -0.025 0.005 -0.026 0.005 -0.025 0.003 -0.026 0.003 -0.026 0.002 -0.026 0.002 -0.026 0 -9.381 0 -0.027 0 -0.026-0.002 -0.026-0.002 -0.026-0.003 -0.025-0.003 -0.025-0.005 -0.026-0.005 -0.025-0.006 -0.024-0.007 -0.025-0.008 -0.024-0.008 -0.024-0.01 -0.023-0.009 -0.023-0.011 -0.023-0.011 -0.023-0.012 -0.022-0.013 -0.021-0.014 -0.021-0.014 -0.021-0.015 -0.02-0.015 -0.02-0.016 -0.02-0.017 -0.019-0.017 -0.018-0.018 -0.018-0.019 -0.017-0.019 -0.016-0.02 -0.016-0.02 -0.016-0.021 -0.015-0.022 -0.014-0.022 -0.013-0.022 -0.013-0.023 -0.012-0.023 -0.011-0.024 -0.01-0.024 -0.01-0.024 -0.008-0.024 -0.008-0.024 -0.007-0.025 -0.007-0.025 -0.005-0.025 -0.005-0.025 -0.004-0.025 -0.003-0.025 -0.002-0.025 -0.002-0.026 -0.001-0.025 0-0.026 0.001-0.025 0.002-0.026 0.002-0.025 0.004-0.025 0.004-0.026 0.005-0.025 0.005-0.025 0.007-0.025 0.007-0.025 0.008-0.024 0.009-0.024 0.01-0.025 0.01-0.024 0.012-0.023 4.69-9.381 0.014-0.026 0.014-0.025 0.015-0.024 0.015-0.023 0.017-0.023 0.017-0.022 0.018-0.022 0.018-0.021 0.019-0.02 0.02-0.02 0.021-0.018 0.021-0.018 0.021-0.018 0.023-0.016 0.022-0.016 0.024-0.015 0.023-0.014 0.025-0.013 0.024-0.013 0.026-0.011 0.025-0.011 0.026-0.01 0.026-0.009 0.027-0.008 0.027-0.008 0.027-0.006 0.028-0.005 0.028-0.005 0.028-0.003 0.028-0.003 0.028-0.001 0.029-0.001 0.029 0.001ZM1.118 10l8.764 0 -4.382-8.764 -4.382 8.764ZM6 8l0 1 -1 0 0-1 1 0ZM6 4l0 3 -1 0 0-3 1 0Z" fill="#fff"/></svg>